<svg xmlns="http://www.w3.org/2000/svg" viewBox="0 0 24 24" width="24" height="24">
  <!-- Cartouche D-Pad Bas biseauté -->
  <polygon points="3,1 21,1 21,16 16,22 8,22 3,16" fill="#101216" stroke="#000000" stroke-width="2.5" stroke-linejoin="miter"/>
  
  <!-- Hachures d'ombre pochoir -->
  <g stroke="#000000" stroke-width="1.5" stroke-linecap="square">
    <line x1="15" y1="20" x2="20" y2="15"/>
    <line x1="12" y1="20" x2="20" y2="12"/>
    <line x1="17" y1="20" x2="20" y2="17"/>
  </g>

  <!-- Bord intérieur d'acier -->
  <polygon points="4.5,2.5 19.5,2.5 19.5,15.5 15.5,20.5 8.5,20.5 4.5,15.5" fill="none" stroke="#2B333D" stroke-width="1"/>

  <!-- Flèche chevron descendante -->
  <polygon points="12,19 7,13 10,13 10,7 14,7 14,13 17,13" fill="#000000" transform="translate(1, 1)"/>
  <polygon points="12,19 7,13 10,13 10,7 14,7 14,13 17,13" fill="#FAEDE0" stroke="#000000" stroke-width="1.2" stroke-linejoin="miter"/>
  
  <!-- Encoche pochoir d'atelier -->
  <line x1="12" y1="17" x2="12" y2="10" stroke="#101216" stroke-width="1.5"/>
</svg>
