<svg xmlns="http://www.w3.org/2000/svg" viewBox="0 0 24 24" width="24" height="24">
  <!-- Cartouche D-Pad Droite biseauté -->
  <polygon points="1,3 16,3 22,8 22,16 16,21 1,21" fill="#101216" stroke="#000000" stroke-width="2.5" stroke-linejoin="miter"/>
  
  <!-- Hachures d'ombre pochoir -->
  <g stroke="#000000" stroke-width="1.5" stroke-linecap="square">
    <line x1="15" y1="20" x2="20" y2="15"/>
    <line x1="17" y1="20" x2="21" y2="16"/>
  </g>

  <!-- Bord intérieur d'acier -->
  <polygon points="2.5,4.5 15.5,4.5 20.5,8.5 20.5,15.5 15.5,19.5 2.5,19.5" fill="none" stroke="#2B333D" stroke-width="1"/>

  <!-- Flèche chevron droite -->
  <polygon points="19,12 13,7 13,10 7,10 7,14 13,14 13,17" fill="#000000" transform="translate(1, 1)"/>
  <polygon points="19,12 13,7 13,10 7,10 7,14 13,14 13,17" fill="#FAEDE0" stroke="#000000" stroke-width="1.2" stroke-linejoin="miter"/>
  
  <!-- Encoche pochoir d'atelier -->
  <line x1="17" y1="12" x2="10" y2="12" stroke="#101216" stroke-width="1.5"/>
</svg>
