<svg xmlns="http://www.w3.org/2000/svg" viewBox="0 0 24 24" width="24" height="24">
  <!-- Fond octogonal chanfreiné à 45° -->
  <polygon points="7,1 17,1 23,7 23,17 17,23 7,23 1,17 1,7" fill="#101216" stroke="#000000" stroke-width="2.5" stroke-linejoin="miter"/>
  
  <!-- Hachures d'ombre au pochoir -->
  <g stroke="#000000" stroke-width="1.8" stroke-linecap="square">
    <line x1="14" y1="21" x2="21" y2="14"/>
    <line x1="11" y1="22" x2="22" y2="11"/>
    <line x1="15" y1="22" x2="22" y2="15"/>
    <line x1="18" y1="22" x2="22" y2="18"/>
  </g>

  <!-- Biseau d'acier intérieur -->
  <polygon points="7.5,2.5 16.5,2.5 21.5,7.5 21.5,16.5 16.5,21.5 7.5,21.5 2.5,16.5 2.5,7.5" fill="none" stroke="#2B333D" stroke-width="1"/>

  <!-- Ombre d'encre décalée pour le carré -->
  <rect x="6" y="6" width="12" height="12" fill="#000000" transform="translate(1.2, 1.2)"/>

  <!-- Carré géométrique strict aux angles vifs 90° -->
  <rect x="6" y="6" width="12" height="12" fill="#D65CB8" stroke="#000000" stroke-width="1.2"/>
  <rect x="8.5" y="8.5" width="7" height="7" fill="#101216" stroke="#000000" stroke-width="1.2"/>
</svg>
